<?xml version="1.0" encoding="utf-8"?><!-- Uploaded to: SVG Repo, www.svgrepo.com, Generator: SVG Repo Mixer Tools -->
<svg fill="#000000" width="800px" height="800px" viewBox="0 0 24 24" id="wheelchair-left" data-name="Flat Color" xmlns="http://www.w3.org/2000/svg" class="icon flat-color"><path id="primary" d="M3,17H6V13a2,2,0,0,1,2-2h8V9H7A1,1,0,0,1,7,7h9V5a2,2,0,0,1,2-2h2a1,1,0,0,1,0,2H18v7a1,1,0,0,1-1,1H8v2h5a1,1,0,0,1,0,2H8a2,2,0,0,1-2,2H3a1,1,0,0,1,0-2Z" style="fill: rgb(0, 0, 0);"></path><circle id="secondary" cx="17" cy="16" r="5" style="fill: rgb(44, 169, 188);"></circle><circle id="primary-2" data-name="primary" cx="17" cy="16" r="1.5" style="fill: rgb(0, 0, 0);"></circle></svg>